 <svg version="1.0" xmlns="http://www.w3.org/2000/svg" width="700.000000pt" height="700.000000pt" viewBox="0 0 700.000000 700.000000" preserveAspectRatio="xMidYMid meet">
<metadata>
Created by potrace 1.12, written by Peter Selinger 2001-2015
</metadata>
<g transform="translate(0.000000,700.000000) scale(0.100000,-0.100000)" fill="#000000" stroke="none">
<path d="M2705 6978 c-109 -57 -167 -133 -185 -243 -6 -38 -18 -115 -26 -170
-34 -240 -54 -378 -69 -495 -9 -69 -22 -131 -28 -138 -6 -8 -56 -36 -111 -64
-56 -27 -132 -70 -171 -95 -38 -25 -81 -53 -95 -62 -58 -38 -79 -45 -102 -34
-13 6 -54 23 -93 38 -38 15 -83 33 -100 41 -16 7 -100 41 -185 74 -85 33 -164
65 -175 70 -86 40 -220 83 -270 87 -99 9 -201 -37 -265 -117 -16 -20 -55 -81
-86 -136 -31 -54 -64 -112 -74 -129 -10 -16 -34 -59 -55 -95 -84 -145 -168
-291 -205 -354 -14 -24 -47 -82 -75 -130 -27 -48 -60 -104 -71 -124 -129 -223
-153 -272 -164 -327 -21 -108 11 -215 87 -287 35 -33 173 -143 367 -293 43
-33 109 -85 146 -115 38 -30 85 -66 104 -80 20 -14 39 -36 42 -49 4 -13 3 -75
-2 -137 -5 -67 -5 -161 0 -228 5 -62 6 -124 2 -137 -3 -13 -27 -40 -54 -59
-26 -19 -74 -56 -107 -82 -33 -26 -94 -74 -135 -106 -359 -279 -391 -307 -421
-365 -29 -56 -40 -136 -28 -209 10 -59 21 -85 104 -228 70 -122 80 -138 130
-226 28 -48 61 -106 75 -130 40 -68 124 -212 140 -242 15 -25 102 -174 125
-214 6 -9 32 -56 59 -105 84 -151 123 -198 196 -235 57 -29 73 -33 145 -33 68
1 94 6 175 38 52 21 104 42 115 47 11 5 90 37 175 70 85 33 169 67 185 74 17
8 62 26 100 41 39 15 80 32 93 38 26 12 32 9 170 -80 46 -30 132 -78 191 -107
59 -30 112 -60 118 -68 6 -7 19 -69 28 -138 36 -271 78 -559 98 -671 20 -112
73 -181 184 -238 42 -21 45 -21 794 -21 l752 0 44 22 c61 31 116 80 146 130
26 45 39 103 63 278 8 58 23 166 33 240 11 74 27 191 36 260 9 69 22 131 28
138 6 8 63 41 126 73 64 33 161 88 216 124 105 67 115 71 143 56 9 -5 49 -21
87 -36 39 -15 84 -33 100 -40 17 -8 100 -41 185 -75 85 -33 164 -65 175 -70
11 -5 63 -26 115 -47 83 -33 105 -38 175 -37 143 1 224 60 323 235 29 52 81
142 115 200 34 58 88 153 121 210 32 57 69 120 81 139 12 19 46 78 75 130 29
52 61 109 72 125 93 148 171 298 184 354 27 117 -3 225 -84 303 -26 25 -132
112 -237 193 -181 142 -370 290 -407 321 -21 16 -23 77 -8 189 6 47 6 109 -2
190 -6 66 -8 131 -5 145 4 14 23 36 42 50 20 14 75 56 123 93 48 38 114 90
147 116 33 26 114 89 180 141 205 160 236 196 256 305 7 38 7 74 -1 117 -13
73 -12 71 -115 248 -43 74 -111 191 -150 260 -40 69 -105 181 -145 250 -40 69
-98 170 -130 225 -194 340 -204 353 -290 397 -57 29 -73 33 -145 33 -68 -1
-94 -6 -175 -38 -52 -21 -104 -42 -115 -47 -11 -5 -90 -37 -175 -70 -85 -34
-168 -67 -185 -75 -16 -7 -61 -25 -100 -40 -38 -15 -78 -31 -87 -36 -10 -5
-23 -9 -28 -9 -6 0 -64 33 -128 74 -64 41 -157 94 -207 119 -135 67 -131 61
-150 207 -9 69 -25 186 -36 260 -10 74 -25 182 -33 240 -24 175 -37 233 -63
278 -28 47 -87 99 -150 131 -42 21 -47 21 -795 21 -744 -1 -753 -1 -793 -22z
m1065 -2346 c189 -52 334 -126 473 -240 144 -119 283 -313 343 -478 63 -175
68 -205 68 -414 0 -170 -3 -205 -22 -270 -38 -132 -70 -210 -123 -304 -162
-282 -417 -472 -754 -562 -107 -29 -420 -26 -525 4 -233 67 -390 155 -538 300
-163 161 -254 318 -324 562 -19 65 -22 100 -22 270 0 170 3 205 22 270 70 244
161 401 324 562 150 147 322 242 538 298 112 29 112 29 295 26 135 -3 186 -8
245 -24z"></path>
</g>
</svg>