 <svg version="1.0" xmlns="http://www.w3.org/2000/svg" width="700.000000pt" height="700.000000pt" viewBox="0 0 700.000000 700.000000" preserveAspectRatio="xMidYMid meet">
<metadata>
Created by potrace 1.12, written by Peter Selinger 2001-2015
</metadata>
<g transform="translate(0.000000,700.000000) scale(0.100000,-0.100000)" fill="#000000" stroke="none">
<path d="M2990 6962 c-126 -63 -216 -169 -240 -284 -6 -29 -20 -123 -30 -208
-11 -85 -26 -207 -34 -270 -8 -63 -15 -118 -16 -121 0 -4 -28 -17 -62 -29 -67
-23 -225 -89 -295 -122 -24 -11 -48 -16 -55 -12 -7 5 -74 56 -148 114 -277
217 -315 244 -383 273 -66 27 -76 29 -181 25 -175 -6 -182 -11 -522 -352 -340
-339 -346 -347 -352 -520 -7 -171 3 -190 278 -540 47 -59 98 -125 114 -146
l29 -39 -21 -43 c-33 -71 -99 -229 -122 -295 -12 -35 -25 -63 -29 -63 -3 -1
-55 -8 -116 -16 -60 -8 -182 -23 -270 -33 -219 -27 -260 -37 -325 -79 -80 -52
-136 -115 -175 -199 l-35 -72 0 -431 0 -431 34 -72 c40 -83 98 -149 176 -200
65 -41 107 -51 325 -78 88 -10 210 -25 270 -33 61 -8 113 -15 116 -16 4 0 16
-28 28 -62 13 -35 28 -76 36 -93 7 -16 25 -59 40 -95 15 -36 36 -84 47 -108
l21 -43 -29 -39 c-16 -21 -67 -87 -114 -146 -195 -248 -230 -297 -256 -364
-24 -62 -26 -77 -22 -176 6 -173 12 -181 352 -520 348 -349 348 -349 536 -349
175 0 174 0 549 294 78 62 149 115 157 118 7 2 30 -4 51 -15 21 -12 67 -33
103 -48 36 -14 79 -32 95 -39 17 -8 58 -23 93 -36 34 -12 62 -24 62 -28 1 -3
8 -58 16 -121 8 -63 23 -185 34 -270 10 -85 24 -180 30 -210 13 -60 64 -146
120 -200 44 -43 59 -53 138 -90 l64 -30 429 0 430 0 72 35 c84 39 147 95 199
175 42 64 52 107 78 320 11 85 26 207 34 270 8 63 15 118 16 121 0 4 28 17 63
29 84 30 243 96 290 121 21 12 44 18 51 16 8 -3 76 -54 152 -114 271 -213 315
-245 372 -271 52 -25 68 -27 182 -27 188 0 188 0 536 349 349 348 349 348 349
536 0 115 -2 130 -27 182 -15 32 -105 157 -200 280 -95 122 -177 228 -181 235
-5 8 -1 31 11 56 33 70 99 228 122 295 12 34 25 62 29 62 3 1 58 8 121 16 63
8 185 23 270 34 85 10 180 24 210 30 96 21 223 121 268 212 56 114 53 84 50
550 l-3 433 -32 66 c-59 120 -172 215 -285 239 -29 6 -123 20 -208 30 -85 11
-207 26 -270 34 -63 8 -118 15 -121 16 -4 0 -17 28 -29 63 -23 65 -88 224
-121 293 -10 22 -19 42 -19 45 0 3 79 106 175 229 96 124 189 254 207 290 32
63 33 69 33 190 0 188 0 188 -349 536 -340 341 -347 346 -522 352 -173 6 -182
2 -568 -301 -76 -60 -144 -111 -152 -114 -7 -2 -30 4 -51 16 -47 25 -206 91
-290 121 -35 12 -63 25 -63 29 -1 3 -8 58 -16 121 -8 63 -23 185 -34 270 -26
213 -36 256 -78 320 -52 80 -115 136 -199 175 l-72 35 -433 0 -433 -1 -75 -37z
m785 -2034 c291 -59 521 -179 733 -382 256 -246 412 -571 443 -927 34 -400
-111 -814 -390 -1112 -217 -230 -467 -369 -791 -437 -149 -32 -391 -32 -540 0
-282 60 -525 184 -723 369 -228 215 -367 465 -438 791 -32 151 -33 391 0 540
58 264 148 456 302 645 213 261 499 436 834 510 175 39 389 40 570 3z"></path>
</g>
</svg>